<?xml version="1.0" encoding="utf-8"?>
<!-- Generator: Adobe Illustrator 16.0.0, SVG Export Plug-In . SVG Version: 6.00 Build 0)  -->
<!DOCTYPE svg PUBLIC "-//W3C//DTD SVG 1.1//EN" "http://www.w3.org/Graphics/SVG/1.1/DTD/svg11.dtd">
<svg version="1.1" id="Layer_1" xmlns="http://www.w3.org/2000/svg" xmlns:xlink="http://www.w3.org/1999/xlink" x="0px" y="0px"
	 width="736px" height="551.209px" viewBox="51.445 359.775 736 551.209" enable-background="new 51.445 359.775 736 551.209"
	 xml:space="preserve">
<g>
	<defs>
		<rect id="SVGID_1_" x="0" y="279.566" width="841.889" height="631.418"/>
	</defs>
	<clipPath id="SVGID_2_">
		<use xlink:href="#SVGID_1_"  overflow="visible"/>
	</clipPath>
	<g clip-path="url(#SVGID_2_)">
		<path fill="#EFEFEF" d="M253.202,856.375l132.829-229.752l132.83,229.752H253.202z"/>
		<path fill="none" stroke="#595959" stroke-linejoin="round" stroke-miterlimit="10" d="M253.202,856.375l132.829-229.752
			l132.83,229.752H253.202z"/>
		<path fill-opacity="0" d="M168.945,851.99h106.175v30.77H168.945V851.99z"/>
		<path fill="#999999" d="M200.185,866.983c0-0.986,0.16-1.896,0.479-2.727c0.329-0.831,0.694-1.508,1.097-2.028
			c0.411-0.529,0.735-0.863,0.973-1l0.863,0.425c-0.229,0.174-0.507,0.479-0.836,0.918c-0.319,0.438-0.621,1.037-0.904,1.795
			c-0.274,0.758-0.425,1.631-0.452,2.617v0.274c0,0.968,0.133,1.827,0.397,2.576c0.265,0.739,0.562,1.329,0.891,1.768
			c0.338,0.447,0.64,0.767,0.904,0.959l-0.863,0.425c-0.265-0.174-0.594-0.498-0.986-0.973c-0.394-0.476-0.754-1.143-1.083-2.001
			C200.345,869.153,200.185,868.143,200.185,866.983z"/>
		<path fill="#CC0000" d="M205.178,867.517c0-0.739,0.137-1.389,0.411-1.945c0.273-0.558,0.652-0.986,1.137-1.288
			c0.493-0.302,1.046-0.452,1.658-0.452c1.068,0,1.836,0.324,2.302,0.973c0.476,0.648,0.713,1.512,0.713,2.59
			c0,0.74-0.133,1.397-0.397,1.974c-0.256,0.575-0.626,1.027-1.11,1.356c-0.475,0.319-1.022,0.479-1.644,0.479
			c-0.713,0-1.298-0.169-1.754-0.507c-0.457-0.338-0.79-0.781-1.001-1.329C205.282,868.81,205.178,868.193,205.178,867.517z
			 M210.097,867.517c0-0.539-0.064-1.019-0.192-1.438c-0.127-0.42-0.324-0.749-0.589-0.986c-0.265-0.247-0.599-0.37-1-0.37
			c-0.604-0.01-1.064,0.224-1.384,0.699c-0.311,0.475-0.466,1.128-0.466,1.959c0,0.53,0.068,1.019,0.205,1.466
			c0.137,0.438,0.343,0.795,0.616,1.069c0.283,0.273,0.631,0.411,1.042,0.411c0.585,0,1.023-0.247,1.315-0.74
			C209.947,869.094,210.097,868.404,210.097,867.517z"/>
		<path fill="#999999" d="M213.102,873.287c0.21-0.11,0.384-0.302,0.521-0.576c0.146-0.273,0.219-0.57,0.219-0.891
			c0-0.164-0.031-0.333-0.096-0.507c-0.063-0.174-0.15-0.319-0.26-0.438c-0.11-0.128-0.22-0.196-0.329-0.205v-0.356l0.795-0.754
			c0.246,0.092,0.452,0.242,0.616,0.452c0.164,0.201,0.283,0.425,0.356,0.672c0.073,0.246,0.109,0.488,0.109,0.726
			c0,0.411-0.068,0.79-0.205,1.138c-0.138,0.347-0.32,0.644-0.549,0.891c-0.228,0.246-0.479,0.42-0.753,0.521l-0.425-0.521V873.287z
			"/>
		<path fill="#E69138" d="M220.262,867.517c0-0.739,0.137-1.389,0.411-1.945c0.273-0.558,0.653-0.986,1.137-1.288
			c0.493-0.302,1.046-0.452,1.658-0.452c1.069,0,1.836,0.324,2.302,0.973c0.476,0.648,0.713,1.512,0.713,2.59
			c0,0.74-0.133,1.397-0.397,1.974c-0.256,0.575-0.626,1.027-1.109,1.356c-0.476,0.319-1.023,0.479-1.645,0.479
			c-0.713,0-1.297-0.169-1.754-0.507s-0.79-0.781-1-1.329C220.366,868.81,220.262,868.193,220.262,867.517z M225.181,867.517
			c0-0.539-0.063-1.019-0.191-1.438s-0.324-0.749-0.59-0.986c-0.265-0.247-0.598-0.37-1-0.37c-0.603-0.01-1.064,0.224-1.384,0.699
			c-0.311,0.475-0.466,1.128-0.466,1.959c0,0.53,0.068,1.019,0.205,1.466c0.138,0.438,0.343,0.795,0.617,1.069
			c0.283,0.273,0.63,0.411,1.041,0.411c0.585,0,1.023-0.247,1.315-0.74C225.031,869.094,225.181,868.404,225.181,867.517z"/>
		<path fill="#999999" d="M228.186,873.287c0.21-0.11,0.384-0.302,0.521-0.576c0.146-0.273,0.22-0.57,0.22-0.891
			c0-0.164-0.032-0.333-0.097-0.507c-0.063-0.174-0.15-0.319-0.26-0.438c-0.11-0.128-0.22-0.196-0.329-0.205v-0.356l0.795-0.754
			c0.246,0.092,0.452,0.242,0.616,0.452c0.165,0.201,0.283,0.425,0.356,0.672c0.073,0.246,0.109,0.488,0.109,0.726
			c0,0.411-0.068,0.79-0.205,1.138c-0.138,0.347-0.32,0.644-0.548,0.891c-0.229,0.246-0.48,0.42-0.754,0.521l-0.425-0.521V873.287z"
			/>
		<path fill="#3D85C6" d="M236.648,865.407c-0.503,0.138-0.923,0.238-1.261,0.302l-0.15-0.754c0.237-0.063,0.502-0.164,0.795-0.301
			c0.292-0.146,0.562-0.297,0.808-0.452c0.256-0.155,0.438-0.283,0.549-0.384l0.575,0.137v7.153h-1.315V865.407z"/>
		<path fill="#999999" d="M243.873,867.093c0,0.987-0.159,1.896-0.479,2.728c-0.319,0.831-0.685,1.507-1.096,2.027
			c-0.411,0.53-0.735,0.859-0.973,0.986l-0.863-0.424c0.228-0.174,0.502-0.48,0.821-0.919c0.329-0.438,0.631-1.032,0.905-1.781
			c0.283-0.758,0.438-1.63,0.466-2.617l0.014-0.273c0-0.969-0.138-1.823-0.411-2.562c-0.266-0.749-0.566-1.343-0.904-1.781
			c-0.329-0.448-0.626-0.772-0.891-0.974l0.863-0.424c0.265,0.173,0.594,0.502,0.986,0.986c0.393,0.475,0.749,1.142,1.068,2
			C243.709,864.924,243.873,865.932,243.873,867.093z"/>
		<path fill-opacity="0" d="M495.176,851.99h106.176v30.77H495.176V851.99z"/>
		<path fill="#999999" d="M526.417,866.983c0-0.986,0.159-1.896,0.479-2.727c0.329-0.831,0.694-1.508,1.096-2.028
			c0.411-0.529,0.735-0.863,0.974-1l0.863,0.425c-0.229,0.174-0.508,0.479-0.836,0.918c-0.32,0.438-0.621,1.037-0.904,1.795
			c-0.274,0.758-0.425,1.631-0.452,2.617v0.274c0,0.968,0.132,1.827,0.396,2.576c0.266,0.739,0.562,1.329,0.891,1.768
			c0.339,0.447,0.64,0.767,0.905,0.959l-0.863,0.425c-0.266-0.174-0.594-0.498-0.987-0.973c-0.393-0.476-0.753-1.143-1.082-2.001
			C526.576,869.153,526.417,868.143,526.417,866.983z"/>
		<path fill="#CC0000" d="M532.711,865.407c-0.502,0.138-0.923,0.238-1.261,0.302l-0.15-0.754c0.237-0.063,0.502-0.164,0.795-0.301
			c0.292-0.146,0.562-0.297,0.809-0.452c0.256-0.155,0.438-0.283,0.548-0.384l0.575,0.137v7.153h-1.315V865.407z"/>
		<path fill="#999999" d="M536.662,873.287c0.21-0.11,0.384-0.302,0.521-0.576c0.146-0.273,0.22-0.57,0.22-0.891
			c0-0.164-0.032-0.333-0.096-0.507c-0.064-0.174-0.151-0.319-0.261-0.438c-0.109-0.128-0.219-0.196-0.329-0.205v-0.356l0.795-0.754
			c0.247,0.092,0.452,0.242,0.617,0.452c0.164,0.201,0.283,0.425,0.355,0.672c0.073,0.246,0.11,0.488,0.11,0.726
			c0,0.411-0.069,0.79-0.206,1.138c-0.137,0.347-0.319,0.644-0.548,0.891c-0.229,0.246-0.479,0.42-0.754,0.521l-0.425-0.521V873.287
			z"/>
		<path fill="#E69138" d="M543.823,867.517c0-0.739,0.138-1.389,0.411-1.945c0.274-0.558,0.653-0.986,1.138-1.288
			c0.493-0.302,1.046-0.452,1.658-0.452c1.068,0,1.836,0.324,2.302,0.973c0.475,0.648,0.713,1.512,0.713,2.59
			c0,0.74-0.133,1.397-0.397,1.974c-0.256,0.575-0.626,1.027-1.11,1.356c-0.475,0.319-1.023,0.479-1.645,0.479
			c-0.712,0-1.297-0.169-1.754-0.507c-0.456-0.338-0.79-0.781-1-1.329C543.928,868.81,543.823,868.193,543.823,867.517z
			 M548.742,867.517c0-0.539-0.064-1.019-0.192-1.438s-0.324-0.749-0.589-0.986c-0.265-0.247-0.599-0.37-1-0.37
			c-0.604-0.01-1.064,0.224-1.385,0.699c-0.311,0.475-0.466,1.128-0.466,1.959c0,0.53,0.068,1.019,0.206,1.466
			c0.137,0.438,0.343,0.795,0.616,1.069c0.283,0.273,0.631,0.411,1.042,0.411c0.584,0,1.022-0.247,1.315-0.74
			C548.591,869.094,548.742,868.404,548.742,867.517z"/>
		<path fill="#999999" d="M551.746,873.287c0.211-0.11,0.384-0.302,0.521-0.576c0.146-0.273,0.219-0.57,0.219-0.891
			c0-0.164-0.032-0.333-0.096-0.507c-0.064-0.174-0.15-0.319-0.261-0.438c-0.109-0.128-0.219-0.196-0.329-0.205v-0.356l0.795-0.754
			c0.247,0.092,0.452,0.242,0.617,0.452c0.164,0.201,0.283,0.425,0.356,0.672c0.072,0.246,0.109,0.488,0.109,0.726
			c0,0.411-0.068,0.79-0.206,1.138c-0.137,0.347-0.319,0.644-0.548,0.891c-0.229,0.246-0.479,0.42-0.754,0.521l-0.425-0.521V873.287
			z"/>
		<path fill="#3D85C6" d="M558.906,867.517c0-0.739,0.138-1.389,0.411-1.945c0.274-0.558,0.653-0.986,1.138-1.288
			c0.493-0.302,1.046-0.452,1.658-0.452c1.068,0,1.836,0.324,2.302,0.973c0.476,0.648,0.713,1.512,0.713,2.59
			c0,0.74-0.133,1.397-0.397,1.974c-0.256,0.575-0.626,1.027-1.11,1.356c-0.475,0.319-1.022,0.479-1.644,0.479
			c-0.713,0-1.298-0.169-1.754-0.507c-0.457-0.338-0.791-0.781-1.001-1.329C559.012,868.81,558.906,868.193,558.906,867.517z
			 M563.826,867.517c0-0.539-0.064-1.019-0.192-1.438s-0.324-0.749-0.589-0.986c-0.265-0.247-0.599-0.37-1-0.37
			c-0.604-0.01-1.064,0.224-1.385,0.699c-0.311,0.475-0.466,1.128-0.466,1.959c0,0.53,0.069,1.019,0.206,1.466
			c0.137,0.438,0.343,0.795,0.616,1.069c0.283,0.273,0.631,0.411,1.042,0.411c0.584,0,1.022-0.247,1.315-0.74
			C563.675,869.094,563.826,868.404,563.826,867.517z"/>
		<path fill="#999999" d="M570.106,867.093c0,0.987-0.16,1.896-0.479,2.728c-0.319,0.831-0.686,1.507-1.097,2.027
			c-0.411,0.53-0.735,0.859-0.973,0.986l-0.863-0.424c0.229-0.174,0.503-0.48,0.822-0.919c0.329-0.438,0.631-1.032,0.904-1.781
			c0.283-0.758,0.438-1.63,0.466-2.617l0.014-0.273c0-0.969-0.137-1.823-0.411-2.562c-0.265-0.749-0.566-1.343-0.904-1.781
			c-0.328-0.448-0.626-0.772-0.891-0.974l0.863-0.424c0.265,0.173,0.594,0.502,0.986,0.986c0.394,0.475,0.75,1.142,1.069,2
			C569.942,864.924,570.106,865.932,570.106,867.093z"/>
		<path fill-opacity="0" d="M392.577,606.938h69.826v30.77h-69.826V606.938z"/>
		<path fill="#999999" d="M405.644,621.931c0-0.986,0.16-1.896,0.479-2.727c0.329-0.831,0.694-1.508,1.097-2.028
			c0.411-0.529,0.735-0.863,0.973-1l0.863,0.425c-0.229,0.174-0.507,0.479-0.836,0.918c-0.319,0.438-0.621,1.037-0.904,1.795
			c-0.274,0.759-0.425,1.631-0.452,2.617v0.274c0,0.968,0.133,1.827,0.397,2.576c0.265,0.739,0.562,1.329,0.891,1.768
			c0.338,0.447,0.64,0.768,0.904,0.959l-0.863,0.425c-0.265-0.174-0.594-0.498-0.986-0.973c-0.394-0.476-0.754-1.143-1.083-2.001
			C405.804,624.101,405.644,623.092,405.644,621.931z"/>
		<path fill="#CC0000" d="M410.637,622.466c0-0.739,0.137-1.388,0.411-1.945c0.273-0.558,0.652-0.986,1.137-1.288
			c0.493-0.302,1.046-0.452,1.658-0.452c1.068,0,1.836,0.324,2.302,0.973c0.476,0.648,0.713,1.512,0.713,2.59
			c0,0.74-0.133,1.397-0.397,1.974c-0.256,0.575-0.626,1.027-1.11,1.356c-0.475,0.319-1.022,0.479-1.644,0.479
			c-0.713,0-1.298-0.169-1.754-0.507c-0.457-0.338-0.79-0.781-1.001-1.329C410.741,623.759,410.637,623.142,410.637,622.466z
			 M415.556,622.466c0-0.539-0.064-1.019-0.192-1.438c-0.127-0.42-0.324-0.749-0.589-0.986c-0.265-0.247-0.599-0.37-1-0.37
			c-0.604-0.009-1.064,0.224-1.384,0.699c-0.311,0.475-0.466,1.128-0.466,1.959c0,0.53,0.068,1.019,0.205,1.466
			c0.137,0.438,0.343,0.795,0.616,1.069c0.283,0.274,0.631,0.411,1.042,0.411c0.585,0,1.023-0.247,1.315-0.74
			C415.406,624.042,415.556,623.352,415.556,622.466z"/>
		<path fill="#999999" d="M418.561,628.235c0.21-0.11,0.383-0.302,0.521-0.576c0.146-0.273,0.219-0.57,0.219-0.891
			c0-0.164-0.031-0.333-0.096-0.507c-0.063-0.174-0.15-0.319-0.26-0.438c-0.11-0.128-0.22-0.196-0.329-0.205v-0.356l0.795-0.754
			c0.246,0.092,0.452,0.242,0.616,0.452c0.164,0.201,0.283,0.425,0.356,0.672c0.073,0.246,0.109,0.488,0.109,0.726
			c0,0.411-0.068,0.79-0.205,1.138c-0.138,0.347-0.32,0.644-0.549,0.891s-0.479,0.42-0.753,0.521l-0.425-0.521V628.235z"/>
		<path fill="#E69138" d="M427.023,620.356c-0.503,0.137-0.923,0.237-1.261,0.301l-0.15-0.753c0.237-0.064,0.502-0.165,0.794-0.302
			c0.293-0.146,0.562-0.297,0.809-0.452c0.256-0.155,0.438-0.283,0.548-0.384l0.576,0.137v7.153h-1.315V620.356z"/>
		<path fill="#999999" d="M430.974,628.235c0.21-0.11,0.384-0.302,0.521-0.576c0.146-0.273,0.219-0.57,0.219-0.891
			c0-0.164-0.031-0.333-0.096-0.507c-0.063-0.174-0.15-0.319-0.26-0.438c-0.11-0.128-0.22-0.196-0.329-0.205v-0.356l0.795-0.754
			c0.246,0.092,0.452,0.242,0.616,0.452c0.164,0.201,0.283,0.425,0.356,0.672c0.073,0.246,0.109,0.488,0.109,0.726
			c0,0.411-0.068,0.79-0.205,1.138c-0.138,0.347-0.32,0.644-0.548,0.891c-0.229,0.247-0.48,0.42-0.754,0.521l-0.425-0.521V628.235z"
			/>
		<path fill="#3D85C6" d="M438.134,622.466c0-0.739,0.137-1.388,0.411-1.945c0.273-0.558,0.653-0.986,1.137-1.288
			c0.494-0.302,1.047-0.452,1.658-0.452c1.069,0,1.836,0.324,2.303,0.973c0.475,0.648,0.712,1.512,0.712,2.59
			c0,0.74-0.132,1.397-0.397,1.974c-0.256,0.575-0.625,1.027-1.109,1.356c-0.476,0.319-1.023,0.479-1.645,0.479
			c-0.713,0-1.297-0.169-1.754-0.507s-0.79-0.781-1-1.329C438.239,623.759,438.134,623.142,438.134,622.466z M443.053,622.466
			c0-0.539-0.063-1.019-0.191-1.438s-0.324-0.749-0.59-0.986c-0.265-0.247-0.598-0.37-1-0.37c-0.603-0.009-1.064,0.224-1.384,0.699
			c-0.311,0.475-0.466,1.128-0.466,1.959c0,0.53,0.068,1.019,0.205,1.466c0.138,0.438,0.343,0.795,0.617,1.069
			c0.283,0.274,0.63,0.411,1.041,0.411c0.585,0,1.023-0.247,1.315-0.74C442.903,624.042,443.053,623.352,443.053,622.466z"/>
		<path fill="#999999" d="M449.332,622.041c0,0.987-0.159,1.896-0.479,2.728c-0.319,0.831-0.685,1.507-1.096,2.027
			c-0.411,0.53-0.735,0.859-0.973,0.987l-0.863-0.425c0.228-0.174,0.502-0.479,0.821-0.918c0.329-0.438,0.631-1.033,0.905-1.782
			c0.283-0.758,0.438-1.63,0.466-2.617l0.014-0.273c0-0.969-0.138-1.822-0.411-2.562c-0.265-0.749-0.566-1.343-0.904-1.781
			c-0.329-0.448-0.626-0.772-0.891-0.973l0.863-0.425c0.265,0.173,0.594,0.502,0.986,0.986c0.393,0.475,0.749,1.142,1.068,2
			C449.168,619.872,449.332,620.881,449.332,622.041z"/>
		<path d="M420.648,801.547L420.648,801.547c0-1.686,1.366-3.052,3.052-3.052l0,0c0.81,0,1.586,0.321,2.158,0.894
			s0.895,1.349,0.895,2.158l0,0c0,1.686-1.367,3.053-3.053,3.053l0,0C422.014,804.599,420.648,803.232,420.648,801.547z"/>
		<path fill="#CC0000" d="M614.004,530.471v-95.485h14.363v95.485H614.004z"/>
		<path fill="#F1C232" d="M664.297,483.296v47.177h-14.362v-47.177H664.297z"/>
		<path fill="#3D85C6" d="M700.228,483.296v47.177h-14.362v-47.177H700.228z"/>
		<path fill-opacity="0" d="M594.497,530.471h129.377"/>
		<path fill="none" stroke="#595959" stroke-linejoin="round" stroke-miterlimit="10" d="M594.497,530.471h129.377"/>
		<path fill-opacity="0" d="M594.497,482.728h129.377"/>
		<path fill="none" stroke="#595959" stroke-linejoin="round" stroke-miterlimit="10" stroke-dasharray="1,3" d="M594.497,482.728
			h129.377"/>
		<path fill-opacity="0" d="M594.497,435.501h129.377"/>
		<path fill="none" stroke="#595959" stroke-linejoin="round" stroke-miterlimit="10" stroke-dasharray="1,3" d="M594.497,435.501
			h129.377"/>
		<path fill-opacity="0" d="M594.497,532.525V411.379"/>
		<path fill="none" stroke="#595959" stroke-linejoin="round" stroke-miterlimit="10" d="M594.497,532.525V411.379"/>
		<path fill-opacity="0" d="M543.698,420.116h41.652v30.771h-41.652V420.116z"/>
		<path d="M559.958,435.644c0-0.74,0.137-1.389,0.411-1.946c0.273-0.557,0.652-0.986,1.137-1.288
			c0.493-0.301,1.046-0.452,1.658-0.452c1.068,0,1.836,0.324,2.302,0.974c0.476,0.648,0.713,1.512,0.713,2.59
			c0,0.739-0.133,1.397-0.397,1.973c-0.256,0.575-0.626,1.027-1.11,1.356c-0.475,0.32-1.022,0.479-1.644,0.479
			c-0.713,0-1.298-0.169-1.754-0.507c-0.457-0.338-0.791-0.781-1.001-1.329C560.063,436.936,559.958,436.32,559.958,435.644z
			 M564.877,435.644c0-0.539-0.064-1.019-0.191-1.439c-0.128-0.42-0.325-0.749-0.59-0.986c-0.265-0.246-0.599-0.37-1-0.37
			c-0.604-0.009-1.064,0.224-1.384,0.699c-0.311,0.475-0.466,1.128-0.466,1.96c0,0.529,0.068,1.018,0.205,1.466
			c0.137,0.438,0.343,0.795,0.616,1.068c0.284,0.274,0.631,0.411,1.042,0.411c0.585,0,1.023-0.246,1.315-0.74
			C564.727,437.219,564.877,436.53,564.877,435.644z M567.855,438.48c0-0.183,0.041-0.347,0.123-0.493
			c0.091-0.146,0.205-0.265,0.343-0.356c0.146-0.091,0.297-0.137,0.452-0.137c0.265,0,0.47,0.087,0.616,0.261
			c0.155,0.173,0.233,0.384,0.233,0.63c0,0.183-0.046,0.348-0.138,0.493c-0.082,0.146-0.196,0.265-0.342,0.356
			c-0.138,0.082-0.288,0.123-0.453,0.123c-0.146,0-0.283-0.041-0.41-0.123c-0.128-0.073-0.233-0.174-0.315-0.302
			C567.891,438.796,567.855,438.645,567.855,438.48z M571.619,440.302c0.173,0.01,0.301,0.014,0.383,0.014
			c0.631,0,1.201-0.1,1.713-0.301s0.909-0.479,1.192-0.836c0.292-0.365,0.438-0.772,0.438-1.22c0-0.585-0.15-1.019-0.452-1.302
			s-0.771-0.425-1.411-0.425c-0.448,0-0.964,0.087-1.549,0.261l-0.287-0.165l0.328-4.233h4.398l-0.123,1.082h-3.302l-0.22,2.274
			c0.493-0.109,0.928-0.164,1.302-0.164c0.558,0,1.027,0.104,1.411,0.315c0.394,0.21,0.686,0.512,0.877,0.904
			c0.201,0.384,0.302,0.84,0.302,1.37c0,0.566-0.169,1.101-0.507,1.604c-0.329,0.511-0.822,0.927-1.48,1.247
			c-0.648,0.319-1.415,0.483-2.302,0.493c-0.319,0-0.557-0.023-0.712-0.069V440.302z"/>
		<path fill-opacity="0" d="M537.559,467.344h49.994v30.77h-49.994V467.344z"/>
		<path d="M554.918,482.872c0-0.74,0.137-1.389,0.411-1.946c0.274-0.557,0.653-0.986,1.138-1.288
			c0.493-0.302,1.046-0.452,1.657-0.452c1.069,0,1.837,0.324,2.303,0.973c0.475,0.649,0.712,1.513,0.712,2.59
			c0,0.74-0.132,1.398-0.397,1.974c-0.256,0.575-0.625,1.027-1.109,1.356c-0.476,0.319-1.023,0.479-1.645,0.479
			c-0.713,0-1.297-0.169-1.754-0.507s-0.79-0.781-1-1.329C555.024,484.164,554.918,483.548,554.918,482.872z M559.837,482.872
			c0-0.539-0.063-1.019-0.191-1.439c-0.128-0.42-0.324-0.749-0.589-0.986c-0.266-0.247-0.599-0.37-1.001-0.37
			c-0.603-0.009-1.064,0.224-1.384,0.699c-0.311,0.475-0.466,1.128-0.466,1.959c0,0.53,0.068,1.019,0.205,1.467
			c0.138,0.438,0.343,0.795,0.617,1.068c0.283,0.274,0.63,0.411,1.041,0.411c0.585,0,1.023-0.247,1.315-0.74
			C559.687,484.447,559.837,483.758,559.837,482.872z M562.815,485.708c0-0.183,0.041-0.347,0.123-0.493
			c0.092-0.146,0.206-0.265,0.343-0.356c0.146-0.091,0.297-0.137,0.452-0.137c0.265,0,0.471,0.087,0.617,0.261
			c0.154,0.173,0.232,0.383,0.232,0.63c0,0.183-0.046,0.347-0.137,0.493c-0.082,0.146-0.196,0.265-0.343,0.356
			c-0.137,0.082-0.288,0.123-0.452,0.123c-0.146,0-0.283-0.041-0.411-0.123c-0.128-0.073-0.233-0.174-0.315-0.302
			C562.851,486.023,562.815,485.873,562.815,485.708z M571.841,485.448v1.014h-5.398l-0.192-0.645
			c0.694-0.401,1.334-0.845,1.919-1.329c0.594-0.493,1.073-1.009,1.438-1.548c0.374-0.539,0.562-1.064,0.562-1.576
			c0-0.393-0.118-0.703-0.356-0.932c-0.229-0.229-0.562-0.343-1-0.343c-0.365,0-0.722,0.078-1.068,0.233
			c-0.348,0.155-0.631,0.347-0.85,0.575l-0.535-0.713c0.274-0.292,0.631-0.548,1.069-0.767c0.438-0.22,0.945-0.329,1.521-0.329
			c0.877,0,1.512,0.205,1.905,0.616c0.393,0.411,0.589,0.941,0.589,1.59c0,0.484-0.128,0.978-0.384,1.479
			c-0.256,0.494-0.621,0.974-1.096,1.439c-0.466,0.456-1.015,0.881-1.645,1.274L571.841,485.448z M573.822,487.53
			c0.174,0.01,0.302,0.014,0.384,0.014c0.631,0,1.201-0.101,1.713-0.301c0.512-0.201,0.909-0.479,1.192-0.836
			c0.292-0.365,0.438-0.772,0.438-1.22c0-0.585-0.151-1.019-0.452-1.302c-0.302-0.283-0.772-0.425-1.411-0.425
			c-0.448,0-0.964,0.087-1.549,0.261l-0.288-0.165l0.329-4.234h4.398l-0.123,1.083h-3.303l-0.219,2.274
			c0.493-0.109,0.927-0.164,1.302-0.164c0.557,0,1.027,0.104,1.411,0.314c0.393,0.211,0.686,0.512,0.877,0.905
			c0.201,0.384,0.302,0.84,0.302,1.37c0,0.566-0.169,1.101-0.507,1.603c-0.329,0.512-0.822,0.928-1.48,1.247
			c-0.648,0.32-1.416,0.484-2.302,0.493c-0.32,0-0.558-0.022-0.713-0.068V487.53z"/>
		<path fill="#CC0000" d="M275.881,449.385h109.435v14.362H275.881V449.385z"/>
		<path fill="#F1C232" d="M385.322,449.385h54.081v14.362h-54.081V449.385z"/>
		<path fill="#3D85C6" d="M439.392,449.385h54.082v14.362h-54.082V449.385z"/>
		<path fill-opacity="0" d="M358.213,463.748h54.082v30.771h-54.082V463.748z"/>
		<path d="M376.93,479.276c0-0.74,0.137-1.389,0.411-1.946c0.273-0.557,0.653-0.986,1.137-1.287
			c0.493-0.302,1.046-0.453,1.658-0.453c1.069,0,1.836,0.325,2.302,0.974c0.476,0.648,0.713,1.512,0.713,2.59
			c0,0.739-0.133,1.397-0.397,1.973c-0.256,0.576-0.626,1.028-1.109,1.356c-0.476,0.32-1.023,0.48-1.645,0.48
			c-0.713,0-1.298-0.17-1.754-0.508c-0.457-0.338-0.79-0.781-1.001-1.329C377.034,480.569,376.93,479.952,376.93,479.276z
			 M381.849,479.276c0-0.539-0.063-1.019-0.191-1.438c-0.128-0.421-0.325-0.749-0.59-0.987c-0.265-0.246-0.599-0.369-1-0.369
			c-0.603-0.01-1.064,0.224-1.384,0.698c-0.311,0.476-0.466,1.128-0.466,1.96c0,0.529,0.068,1.019,0.205,1.466
			c0.137,0.438,0.343,0.795,0.617,1.068c0.283,0.274,0.63,0.411,1.041,0.411c0.585,0,1.023-0.246,1.315-0.739
			C381.698,480.852,381.849,480.162,381.849,479.276z M384.826,482.113c0-0.184,0.041-0.348,0.123-0.494
			c0.092-0.146,0.205-0.265,0.343-0.355c0.146-0.092,0.297-0.138,0.452-0.138c0.265,0,0.471,0.087,0.616,0.261
			c0.155,0.174,0.233,0.384,0.233,0.63c0,0.183-0.046,0.348-0.138,0.493c-0.082,0.146-0.196,0.266-0.342,0.356
			c-0.138,0.082-0.288,0.124-0.452,0.124c-0.146,0-0.283-0.042-0.411-0.124c-0.128-0.073-0.233-0.173-0.315-0.301
			C384.863,482.427,384.826,482.277,384.826,482.113z M388.591,483.935c0.173,0.009,0.301,0.014,0.384,0.014
			c0.63,0,1.201-0.101,1.713-0.302c0.511-0.201,0.908-0.479,1.191-0.836c0.293-0.365,0.438-0.771,0.438-1.22
			c0-0.584-0.15-1.019-0.452-1.302c-0.301-0.283-0.771-0.425-1.411-0.425c-0.447,0-0.964,0.087-1.549,0.261l-0.287-0.164
			l0.329-4.234h4.398l-0.124,1.082h-3.302l-0.22,2.275c0.493-0.11,0.928-0.165,1.302-0.165c0.558,0,1.028,0.105,1.412,0.315
			c0.393,0.21,0.685,0.512,0.877,0.904c0.2,0.384,0.301,0.841,0.301,1.37c0,0.566-0.169,1.101-0.507,1.604
			c-0.329,0.512-0.822,0.927-1.479,1.247c-0.649,0.319-1.416,0.483-2.303,0.493c-0.319,0-0.557-0.023-0.712-0.068V483.935z"/>
		<path fill-opacity="0" d="M480.518,463.748h26.129v30.771h-26.129V463.748z"/>
		<path d="M493.114,477.166c-0.502,0.137-0.922,0.237-1.261,0.302l-0.15-0.754c0.237-0.063,0.503-0.164,0.795-0.302
			c0.292-0.146,0.562-0.297,0.809-0.452c0.256-0.155,0.438-0.283,0.548-0.384l0.575,0.138v7.152h-1.315V477.166z"/>
		<path fill-opacity="0" d="M263.65,463.748h26.13v30.771h-26.13V463.748z"/>
		<path d="M273.609,479.276c0-0.74,0.138-1.389,0.411-1.946c0.274-0.557,0.653-0.986,1.138-1.287
			c0.493-0.302,1.046-0.453,1.658-0.453c1.068,0,1.836,0.325,2.302,0.974c0.476,0.648,0.713,1.512,0.713,2.59
			c0,0.739-0.133,1.397-0.397,1.973c-0.256,0.576-0.626,1.028-1.11,1.356c-0.475,0.32-1.022,0.48-1.645,0.48
			c-0.712,0-1.297-0.17-1.754-0.508c-0.456-0.338-0.79-0.781-1-1.329C273.714,480.569,273.609,479.952,273.609,479.276z
			 M278.529,479.276c0-0.539-0.064-1.019-0.192-1.438c-0.128-0.421-0.324-0.749-0.589-0.987c-0.265-0.246-0.599-0.369-1-0.369
			c-0.604-0.01-1.064,0.224-1.385,0.698c-0.311,0.476-0.466,1.128-0.466,1.96c0,0.529,0.069,1.019,0.206,1.466
			c0.137,0.438,0.343,0.795,0.616,1.068c0.283,0.274,0.631,0.411,1.042,0.411c0.584,0,1.022-0.246,1.315-0.739
			C278.377,480.852,278.529,480.162,278.529,479.276z"/>
		<path fill-opacity="0" d="M102.47,408.225L102.47,408.225c0-17.598,22.38-31.863,49.986-31.863
			c27.607,0,49.987,14.266,49.987,31.863v127.453c0,17.598-22.38,31.863-49.987,31.863c-27.606,0-49.986-14.266-49.986-31.863
			V408.225z"/>
		<path fill-opacity="0" d="M202.444,408.225L202.444,408.225c0,17.598-22.38,31.863-49.987,31.863
			c-27.606,0-49.986-14.266-49.986-31.863"/>
		<path fill-opacity="0" d="M102.47,408.225L102.47,408.225c0-17.598,22.38-31.863,49.986-31.863
			c27.607,0,49.987,14.266,49.987,31.863v127.453c0,17.598-22.38,31.863-49.987,31.863c-27.606,0-49.986-14.266-49.986-31.863
			V408.225z"/>
		<path fill="none" stroke="#666666" stroke-linejoin="round" stroke-miterlimit="10" stroke-dasharray="1,3" d="M202.444,408.225
			L202.444,408.225c0,17.598-22.38,31.863-49.987,31.863c-27.606,0-49.986-14.266-49.986-31.863"/>
		<path fill="none" stroke="#666666" stroke-linejoin="round" stroke-miterlimit="10" stroke-dasharray="1,3" d="M102.47,408.225
			L102.47,408.225c0-17.598,22.38-31.863,49.986-31.863c27.607,0,49.987,14.266,49.987,31.863v127.453
			c0,17.598-22.38,31.863-49.987,31.863c-27.606,0-49.986-14.266-49.986-31.863V408.225z"/>
		<path fill="#CC0000" d="M113.87,528.519L113.87,528.519c0-4.118,3.339-7.457,7.457-7.457l0,0c1.979,0,3.875,0.785,5.273,2.184
			c1.398,1.399,2.185,3.296,2.185,5.273l0,0c0,4.119-3.339,7.458-7.458,7.458l0,0C117.209,535.977,113.87,532.638,113.87,528.519z"
			/>
		<path fill="#CC0000" d="M134.04,528.519L134.04,528.519c0-4.118,3.339-7.457,7.458-7.457l0,0c1.978,0,3.875,0.785,5.273,2.184
			c1.398,1.399,2.184,3.296,2.184,5.273l0,0c0,4.119-3.339,7.458-7.457,7.458l0,0C137.379,535.977,134.04,532.638,134.04,528.519z"
			/>
		<path fill="#CC0000" d="M154.21,528.519L154.21,528.519c0-4.118,3.339-7.457,7.458-7.457l0,0c1.978,0,3.875,0.785,5.273,2.184
			c1.398,1.399,2.185,3.296,2.185,5.273l0,0c0,4.119-3.339,7.458-7.458,7.458l0,0C157.549,535.977,154.21,532.638,154.21,528.519z"
			/>
		<path fill="#CC0000" d="M174.381,528.519L174.381,528.519c0-4.118,3.339-7.457,7.457-7.457l0,0c1.979,0,3.875,0.785,5.273,2.184
			c1.399,1.399,2.185,3.296,2.185,5.273l0,0c0,4.119-3.339,7.458-7.458,7.458l0,0C177.72,535.977,174.381,532.638,174.381,528.519z"
			/>
		<path fill="#CC0000" d="M113.87,504.842L113.87,504.842c0-4.119,3.339-7.458,7.457-7.458l0,0c1.979,0,3.875,0.786,5.273,2.185
			s2.185,3.296,2.185,5.273l0,0c0,4.119-3.339,7.458-7.458,7.458l0,0C117.209,512.3,113.87,508.961,113.87,504.842z"/>
		<path fill="#CC0000" d="M134.04,504.842L134.04,504.842c0-4.119,3.339-7.458,7.458-7.458l0,0c1.978,0,3.875,0.786,5.273,2.185
			s2.184,3.296,2.184,5.273l0,0c0,4.119-3.339,7.458-7.457,7.458l0,0C137.379,512.3,134.04,508.961,134.04,504.842z"/>
		<path fill="#F1C232" d="M154.21,504.842L154.21,504.842c0-4.119,3.339-7.458,7.458-7.458l0,0c1.978,0,3.875,0.786,5.273,2.185
			s2.185,3.296,2.185,5.273l0,0c0,4.119-3.339,7.458-7.458,7.458l0,0C157.549,512.3,154.21,508.961,154.21,504.842z"/>
		<path fill="#CC0000" d="M174.381,504.842L174.381,504.842c0-4.119,3.339-7.458,7.457-7.458l0,0c1.979,0,3.875,0.786,5.273,2.185
			c1.399,1.398,2.185,3.296,2.185,5.273l0,0c0,4.119-3.339,7.458-7.458,7.458l0,0C177.72,512.3,174.381,508.961,174.381,504.842z"/>
		<path fill="#F1C232" d="M113.87,481.164L113.87,481.164c0-4.119,3.339-7.458,7.457-7.458l0,0c1.979,0,3.875,0.785,5.273,2.185
			c1.398,1.398,2.185,3.295,2.185,5.273l0,0c0,4.118-3.339,7.457-7.458,7.457l0,0C117.209,488.621,113.87,485.282,113.87,481.164z"
			/>
		<path fill="#F1C232" d="M134.04,481.164L134.04,481.164c0-4.119,3.339-7.458,7.458-7.458l0,0c1.978,0,3.875,0.785,5.273,2.185
			c1.398,1.398,2.184,3.295,2.184,5.273l0,0c0,4.118-3.339,7.457-7.457,7.457l0,0C137.379,488.621,134.04,485.282,134.04,481.164z"
			/>
		<path fill="#3D85C6" d="M154.21,481.164L154.21,481.164c0-4.119,3.339-7.458,7.458-7.458l0,0c1.978,0,3.875,0.785,5.273,2.185
			c1.398,1.398,2.185,3.295,2.185,5.273l0,0c0,4.118-3.339,7.457-7.458,7.457l0,0C157.549,488.621,154.21,485.282,154.21,481.164z"
			/>
		<path fill="#CC0000" d="M174.381,481.164L174.381,481.164c0-4.119,3.339-7.458,7.457-7.458l0,0c1.979,0,3.875,0.785,5.273,2.185
			c1.399,1.398,2.185,3.295,2.185,5.273l0,0c0,4.118-3.339,7.457-7.458,7.457l0,0C177.72,488.621,174.381,485.282,174.381,481.164z"
			/>
		<path fill="#3D85C6" d="M113.87,457.485L113.87,457.485c0-4.118,3.339-7.458,7.457-7.458l0,0c1.979,0,3.875,0.786,5.273,2.185
			s2.185,3.296,2.185,5.273l0,0c0,4.119-3.339,7.458-7.458,7.458l0,0C117.209,464.943,113.87,461.604,113.87,457.485z"/>
		<path fill="#F1C232" d="M134.04,457.485L134.04,457.485c0-4.118,3.339-7.458,7.458-7.458l0,0c1.978,0,3.875,0.786,5.273,2.185
			s2.184,3.296,2.184,5.273l0,0c0,4.119-3.339,7.458-7.457,7.458l0,0C137.379,464.943,134.04,461.604,134.04,457.485z"/>
		<path fill="#3D85C6" d="M154.21,457.485L154.21,457.485c0-4.118,3.339-7.458,7.458-7.458l0,0c1.978,0,3.875,0.786,5.273,2.185
			s2.185,3.296,2.185,5.273l0,0c0,4.119-3.339,7.458-7.458,7.458l0,0C157.549,464.943,154.21,461.604,154.21,457.485z"/>
		<path fill="#3D85C6" d="M174.381,457.485L174.381,457.485c0-4.118,3.339-7.458,7.457-7.458l0,0c1.979,0,3.875,0.786,5.273,2.185
			c1.399,1.398,2.185,3.296,2.185,5.273l0,0c0,4.119-3.339,7.458-7.458,7.458l0,0C177.72,464.943,174.381,461.604,174.381,457.485z"
			/>
		<path fill-opacity="0" d="M356.94,681.022l69.826,120.953"/>
		<path fill="none" stroke="#3D85C6" stroke-linejoin="round" stroke-miterlimit="10" stroke-dasharray="4,3" d="M356.94,681.022
			l69.826,120.953"/>
		<path fill="#3D85C6" d="M339.63,667.164l30.052-52.066l12.43,7.182l-30.052,52.066L339.63,667.164z"/>
		<path fill="#F1C232" d="M235.65,844.808l27.041-46.845l12.43,7.181l-27.041,46.846L235.65,844.808z"/>
		<path fill-opacity="0" d="M285.568,801.553h141.199"/>
		<path fill="none" stroke="#E69138" stroke-linejoin="round" stroke-miterlimit="10" stroke-dasharray="4,3" d="M285.568,801.553
			h141.199"/>
		<path fill-opacity="0" d="M392.578,856.375l32.731-56.706"/>
		<path fill="none" stroke="#CC0000" stroke-linejoin="round" stroke-miterlimit="10" stroke-dasharray="4,3" d="M392.578,856.375
			l32.731-56.706"/>
		<path fill="#CC0000" d="M253.202,860.193h139.375v14.363H253.202V860.193z"/>
	</g>
</g>
</svg>
