<?xml version="1.0" encoding="utf-8"?>
<!-- Generator: Adobe Illustrator 16.0.0, SVG Export Plug-In . SVG Version: 6.00 Build 0)  -->
<!DOCTYPE svg PUBLIC "-//W3C//DTD SVG 1.1//EN" "http://www.w3.org/Graphics/SVG/1.1/DTD/svg11.dtd">
<svg version="1.1" xmlns="http://www.w3.org/2000/svg" xmlns:xlink="http://www.w3.org/1999/xlink" x="0px" y="0px"
	 width="714.675px" height="316.751px" viewBox="1704.77 429.775 714.675 316.751"
	 enable-background="new 1704.77 429.775 714.675 316.751" xml:space="preserve">
<g id="Layer_1">
	<path fill="#CC0000" d="M1846.736,712.073h51.251v10.689h-51.251V712.073z"/>
	<path fill="#EFEFEF" d="M2125.427,694.56l125.068-218.068l125.068,218.068H2125.427z"/>
	<path fill="none" stroke="#595959" stroke-linejoin="round" stroke-miterlimit="10" d="M2125.427,694.56l125.068-218.068
		l125.068,218.068H2125.427z"/>
	<path d="M2332.048,678.905L2332.048,678.905c0-1.846,1.496-3.342,3.342-3.342l0,0c0.887,0,1.736,0.353,2.363,0.979
		c0.627,0.627,0.979,1.478,0.979,2.363l0,0c0,1.847-1.496,3.343-3.342,3.343l0,0
		C2333.544,682.248,2332.048,680.752,2332.048,678.905z"/>
	<path d="M2344.7,691.226L2344.7,691.226c0-1.846,1.496-3.342,3.342-3.342l0,0c0.887,0,1.738,0.353,2.363,0.979
		c0.627,0.626,0.98,1.477,0.98,2.362l0,0c0,1.847-1.496,3.343-3.344,3.343l0,0C2346.197,694.569,2344.7,693.073,2344.7,691.226z"/>
	<path d="M2344.7,684.543L2344.7,684.543c0-1.846,1.496-3.343,3.342-3.343l0,0c0.887,0,1.738,0.353,2.363,0.979
		c0.627,0.627,0.98,1.477,0.98,2.363l0,0c0,1.846-1.496,3.342-3.344,3.342l0,0C2346.197,687.885,2344.7,686.388,2344.7,684.543z"/>
	<path d="M2344.7,668.939L2344.7,668.939c0-1.846,1.496-3.343,3.342-3.343l0,0c0.887,0,1.738,0.353,2.363,0.979
		c0.627,0.627,0.98,1.477,0.98,2.363l0,0c0,1.846-1.496,3.342-3.344,3.342l0,0C2346.197,672.281,2344.7,670.785,2344.7,668.939z"/>
	<path d="M2142.886,677.151L2142.886,677.151c0-1.846,1.496-3.342,3.342-3.342l0,0c0.887,0,1.736,0.353,2.363,0.979
		c0.627,0.627,0.979,1.478,0.979,2.363l0,0c0,1.847-1.496,3.343-3.342,3.343l0,0
		C2144.382,680.494,2142.886,678.998,2142.886,677.151z"/>
	<path d="M2356.693,684.543L2356.693,684.543c0-1.846,1.496-3.343,3.342-3.343l0,0c0.887,0,1.736,0.353,2.363,0.979
		s0.979,1.477,0.979,2.363l0,0c0,1.846-1.496,3.342-3.342,3.342l0,0C2358.189,687.885,2356.693,686.388,2356.693,684.543z"/>
	<path d="M2253.837,515.471L2253.837,515.471c0-1.846,1.496-3.342,3.342-3.342l0,0c0.887,0,1.736,0.352,2.363,0.979
		s0.979,1.478,0.979,2.363l0,0c0,1.846-1.496,3.343-3.342,3.343l0,0C2255.333,518.814,2253.837,517.317,2253.837,515.471z"/>
	<path d="M2243.81,511.388L2243.81,511.388c0-1.846,1.498-3.342,3.344-3.342l0,0c0.885,0,1.736,0.352,2.363,0.979
		c0.625,0.627,0.979,1.477,0.979,2.363l0,0c0,1.846-1.496,3.342-3.342,3.342l0,0C2245.308,514.73,2243.81,513.234,2243.81,511.388z"
		/>
	<path d="M2136.2,673.869L2136.2,673.869c0-1.846,1.498-3.342,3.344-3.342l0,0c0.885,0,1.736,0.353,2.363,0.979
		c0.627,0.627,0.979,1.478,0.979,2.363l0,0c0,1.847-1.496,3.343-3.342,3.343l0,0C2137.698,677.212,2136.2,675.716,2136.2,673.869z"
		/>
	<path d="M2332.048,691.226L2332.048,691.226c0-1.846,1.496-3.342,3.342-3.342l0,0c0.887,0,1.736,0.353,2.363,0.979
		c0.627,0.626,0.979,1.477,0.979,2.362l0,0c0,1.847-1.496,3.343-3.342,3.343l0,0
		C2333.544,694.569,2332.048,693.073,2332.048,691.226z"/>
	<path d="M2240.468,503.415L2240.468,503.415c0-1.846,1.496-3.342,3.342-3.342l0,0c0.887,0,1.736,0.353,2.363,0.979
		c0.627,0.627,0.98,1.478,0.98,2.363l0,0c0,1.846-1.498,3.343-3.344,3.343l0,0C2241.964,506.758,2240.468,505.26,2240.468,503.415z"
		/>
	<path d="M2154.857,677.151L2154.857,677.151c0-1.846,1.496-3.342,3.342-3.342l0,0c0.887,0,1.736,0.353,2.363,0.979
		c0.627,0.627,0.98,1.478,0.98,2.363l0,0c0,1.847-1.498,3.343-3.344,3.343l0,0C2156.353,680.494,2154.857,678.998,2154.857,677.151z
		"/>
	<path d="M2161.542,646.057L2161.542,646.057c0-1.846,1.496-3.343,3.342-3.343l0,0c0.887,0,1.736,0.353,2.363,0.979
		s0.979,1.477,0.979,2.363l0,0c0,1.846-1.496,3.342-3.342,3.342l0,0C2163.038,649.399,2161.542,647.903,2161.542,646.057z"/>
	<path d="M2148.941,664.83L2148.941,664.83c0-1.846,1.498-3.342,3.344-3.342l0,0c0.885,0,1.736,0.353,2.363,0.979
		c0.625,0.627,0.979,1.478,0.979,2.363l0,0c0,1.847-1.496,3.343-3.342,3.343l0,0C2150.439,668.173,2148.941,666.677,2148.941,664.83
		z"/>
	<path d="M2242.833,495.442L2242.833,495.442c0-1.846,1.496-3.343,3.342-3.343l0,0c0.887,0,1.736,0.353,2.363,0.979
		s0.979,1.477,0.979,2.363l0,0c0,1.846-1.496,3.342-3.342,3.342l0,0C2244.329,498.784,2242.833,497.288,2242.833,495.442z"/>
	<path d="M2233.784,522.156L2233.784,522.156c0-1.846,1.496-3.342,3.342-3.342l0,0c0.887,0,1.736,0.352,2.363,0.979
		s0.979,1.477,0.979,2.363l0,0c0,1.846-1.496,3.342-3.342,3.342l0,0C2235.281,525.498,2233.784,524.002,2233.784,522.156z"/>
	<path d="M2253.837,503.415L2253.837,503.415c0-1.846,1.496-3.342,3.342-3.342l0,0c0.887,0,1.736,0.353,2.363,0.979
		c0.627,0.627,0.979,1.478,0.979,2.363l0,0c0,1.846-1.496,3.343-3.342,3.343l0,0C2255.333,506.758,2253.837,505.26,2253.837,503.415
		z"/>
	<path d="M2142.886,689.472L2142.886,689.472c0-1.846,1.496-3.342,3.342-3.342l0,0c0.887,0,1.736,0.353,2.363,0.979
		c0.627,0.627,0.979,1.478,0.979,2.363l0,0c0,1.847-1.496,3.343-3.342,3.343l0,0
		C2144.382,692.815,2142.886,691.319,2142.886,689.472z"/>
	<path d="M2260.521,528.841L2260.521,528.841c0-1.846,1.496-3.343,3.342-3.343l0,0c0.887,0,1.738,0.353,2.363,0.979
		c0.627,0.627,0.98,1.477,0.98,2.363l0,0c0,1.846-1.496,3.342-3.344,3.342l0,0C2262.017,532.182,2260.521,530.686,2260.521,528.841z
		"/>
	<path d="M2253.837,495.442L2253.837,495.442c0-1.846,1.496-3.343,3.342-3.343l0,0c0.887,0,1.736,0.353,2.363,0.979
		s0.979,1.477,0.979,2.363l0,0c0,1.846-1.496,3.342-3.342,3.342l0,0C2255.333,498.784,2253.837,497.288,2253.837,495.442z"/>
	<path d="M2247.154,522.156L2247.154,522.156c0-1.846,1.496-3.342,3.342-3.342l0,0c0.887,0,1.736,0.352,2.363,0.979
		s0.98,1.477,0.98,2.363l0,0c0,1.846-1.498,3.342-3.344,3.342l0,0C2248.65,525.498,2247.154,524.002,2247.154,522.156z"/>
	<path d="M2191.077,683.836L2191.077,683.836c0-1.846,1.496-3.342,3.342-3.342l0,0c0.887,0,1.736,0.352,2.363,0.979
		s0.979,1.478,0.979,2.363l0,0c0,1.846-1.496,3.343-3.342,3.343l0,0C2192.573,687.178,2191.077,685.681,2191.077,683.836z"/>
	<path d="M2247.154,508.799L2247.154,508.799c0-1.846,1.496-3.342,3.342-3.342l0,0c0.887,0,1.736,0.353,2.363,0.979
		c0.627,0.627,0.98,1.478,0.98,2.363l0,0c0,1.847-1.498,3.343-3.344,3.343l0,0C2248.65,512.141,2247.154,510.645,2247.154,508.799z"
		/>
	<path d="M2357.355,691.226L2357.355,691.226c0-1.846,1.496-3.342,3.342-3.342l0,0c0.887,0,1.736,0.353,2.363,0.979
		c0.627,0.626,0.979,1.477,0.979,2.362l0,0c0,1.847-1.496,3.343-3.342,3.343l0,0
		C2358.851,694.569,2357.355,693.073,2357.355,691.226z"/>
	<path d="M2332.712,678.907L2332.712,678.907c0-1.846,1.496-3.343,3.342-3.343l0,0c0.887,0,1.736,0.353,2.363,0.979
		s0.979,1.477,0.979,2.363l0,0c0,1.846-1.496,3.342-3.342,3.342l0,0C2334.208,682.249,2332.712,680.753,2332.712,678.907z"/>
	<path d="M2317.956,625.3L2317.956,625.3c0-1.976,1.602-3.576,3.576-3.576l0,0c0.949,0,1.857,0.376,2.529,1.047
		c0.67,0.671,1.047,1.581,1.047,2.529l0,0c0,1.976-1.602,3.577-3.576,3.577l0,0C2319.558,628.877,2317.956,627.275,2317.956,625.3z"
		/>
	<path d="M2356.456,673.869L2356.456,673.869c0-1.976,1.602-3.577,3.578-3.577l0,0c0.947,0,1.857,0.377,2.529,1.048
		c0.67,0.671,1.047,1.581,1.047,2.529l0,0c0,1.976-1.602,3.577-3.576,3.577l0,0C2358.058,677.446,2356.456,675.844,2356.456,673.869
		z"/>
	<path d="M2172.968,678.905L2172.968,678.905c0-1.846,1.496-3.342,3.342-3.342l0,0c0.887,0,1.736,0.353,2.363,0.979
		c0.627,0.627,0.979,1.478,0.979,2.363l0,0c0,1.847-1.496,3.343-3.342,3.343l0,0
		C2174.464,682.248,2172.968,680.752,2172.968,678.905z"/>
	<path d="M2172.968,609.94L2172.968,609.94c0-1.846,1.496-3.342,3.342-3.342l0,0c0.887,0,1.736,0.352,2.363,0.979
		s0.979,1.477,0.979,2.363l0,0c0,1.846-1.496,3.343-3.342,3.343l0,0C2174.464,613.283,2172.968,611.786,2172.968,609.94z"/>
	<path d="M2325.109,668.939L2325.109,668.939c0-1.846,1.496-3.343,3.342-3.343l0,0c0.887,0,1.736,0.353,2.363,0.979
		s0.979,1.477,0.979,2.363l0,0c0,1.846-1.496,3.342-3.342,3.342l0,0C2326.605,672.281,2325.109,670.785,2325.109,668.939z"/>
	<path d="M2351.386,676.742L2351.386,676.742c0-1.846,1.496-3.342,3.342-3.342l0,0c0.887,0,1.736,0.352,2.363,0.979
		s0.979,1.477,0.979,2.363l0,0c0,1.846-1.496,3.342-3.342,3.342l0,0C2352.882,680.084,2351.386,678.588,2351.386,676.742z"/>
	<path d="M2363.611,689.472L2363.611,689.472c0-1.846,1.496-3.342,3.342-3.342l0,0c0.887,0,1.736,0.353,2.363,0.979
		c0.627,0.627,0.979,1.478,0.979,2.363l0,0c0,1.847-1.496,3.343-3.342,3.343l0,0
		C2365.107,692.815,2363.611,691.319,2363.611,689.472z"/>
	<path d="M2312.712,676.743L2312.712,676.743c0-1.846,1.496-3.342,3.342-3.342l0,0c0.887,0,1.736,0.352,2.363,0.979
		s0.979,1.477,0.979,2.363l0,0c0,1.846-1.496,3.342-3.342,3.342l0,0C2314.208,680.085,2312.712,678.589,2312.712,676.743z"/>
	<path d="M2227.298,683.453L2227.298,683.453c0-1.846,1.496-3.343,3.342-3.343l0,0c0.887,0,1.736,0.353,2.363,0.979
		s0.979,1.477,0.979,2.363l0,0c0,1.846-1.496,3.342-3.342,3.342l0,0C2228.794,686.795,2227.298,685.299,2227.298,683.453z"/>
	<path d="M2220.615,535.524L2220.615,535.524c0-1.846,1.496-3.342,3.342-3.342l0,0c0.887,0,1.736,0.353,2.363,0.979
		c0.627,0.627,0.979,1.478,0.979,2.363l0,0c0,1.847-1.496,3.343-3.342,3.343l0,0
		C2222.111,538.867,2220.615,537.371,2220.615,535.524z"/>
	<path d="M2274.896,542.209L2274.896,542.209c0-1.846,1.496-3.342,3.342-3.342l0,0c0.887,0,1.736,0.352,2.363,0.979
		s0.979,1.478,0.979,2.363l0,0c0,1.846-1.496,3.343-3.342,3.343l0,0C2276.392,545.552,2274.896,544.054,2274.896,542.209z"/>
	<path d="M2186.316,658.027L2186.316,658.027c0-1.846,1.496-3.342,3.342-3.342l0,0c0.887,0,1.738,0.353,2.363,0.979
		c0.627,0.627,0.98,1.478,0.98,2.363l0,0c0,1.846-1.496,3.343-3.344,3.343l0,0C2187.812,661.37,2186.316,659.873,2186.316,658.027z"
		/>
	<path d="M2154.859,689.472L2154.859,689.472c0-1.846,1.496-3.342,3.342-3.342l0,0c0.887,0,1.736,0.353,2.363,0.979
		c0.627,0.627,0.979,1.478,0.979,2.363l0,0c0,1.847-1.496,3.343-3.342,3.343l0,0
		C2156.355,692.815,2154.859,691.319,2154.859,689.472z"/>
	<path d="M2233.784,571.402L2233.784,571.402c0-1.846,1.496-3.342,3.342-3.342l0,0c0.887,0,1.736,0.352,2.363,0.979
		s0.979,1.477,0.979,2.363l0,0c0,1.846-1.496,3.342-3.342,3.342l0,0C2235.281,574.744,2233.784,573.248,2233.784,571.402z"/>
	<path d="M2332.478,639.138L2332.478,639.138c0-1.976,1.602-3.577,3.576-3.577l0,0c0.949,0,1.859,0.377,2.529,1.048
		c0.672,0.67,1.047,1.58,1.047,2.529l0,0c0,1.975-1.6,3.576-3.576,3.576l0,0C2334.079,642.715,2332.478,641.113,2332.478,639.138z"
		/>
	<path d="M2202.982,571.402L2202.982,571.402c0-1.846,1.496-3.342,3.342-3.342l0,0c0.887,0,1.736,0.352,2.363,0.979
		s0.98,1.477,0.98,2.363l0,0c0,1.846-1.498,3.342-3.344,3.342l0,0C2204.478,574.744,2202.982,573.248,2202.982,571.402z"/>
	<path d="M2267.206,691.228L2267.206,691.228c0-1.846,1.496-3.343,3.342-3.343l0,0c0.887,0,1.736,0.353,2.363,0.979
		c0.627,0.626,0.979,1.477,0.979,2.363l0,0c0,1.846-1.496,3.342-3.342,3.342l0,0C2268.702,694.57,2267.206,693.074,2267.206,691.228
		z"/>
	<path d="M2306.384,585.527L2306.384,585.527c0-1.846,1.496-3.343,3.342-3.343l0,0c0.887,0,1.736,0.353,2.363,0.979
		s0.979,1.477,0.979,2.363l0,0c0,1.846-1.496,3.342-3.342,3.342l0,0C2307.88,588.869,2306.384,587.373,2306.384,585.527z"/>
	<path d="M2305.952,689.474L2305.952,689.474c0-1.847,1.498-3.343,3.344-3.343l0,0c0.885,0,1.736,0.353,2.363,0.979
		c0.627,0.626,0.979,1.477,0.979,2.363l0,0c0,1.846-1.496,3.342-3.342,3.342l0,0C2307.45,692.816,2305.952,691.32,2305.952,689.474z
		"/>
	<path fill="#CC0000" d="M2202.12,452.15h4.475v10.688h-4.475V452.15z"/>
	<path fill="#3D85C6" d="M2294.698,452.15h4.17v10.688h-4.17V452.15z"/>
	<path fill="#F1C232" d="M2207.087,452.596h87.117v10.689h-87.117V452.596z"/>
	<path fill="#F1C232" d="M2314.031,706.728h65.186v10.689h-65.186V706.728z"/>
	<path fill="#CC0000" d="M2287.027,706.728h87.477v10.689h-87.477V706.728z"/>
	<path fill="#3D85C6" d="M2379.583,706.728h4.17v10.689h-4.17V706.728z"/>
	<path fill="#F1C232" d="M2120.211,712.073h6.686v10.689h-6.686V712.073z"/>
	<path fill="#CC0000" d="M2113.17,712.073h7.154v10.689h-7.154V712.073z"/>
	<path fill="#3D85C6" d="M2127.328,712.073h82.586v10.689h-82.586V712.073z"/>
	<path fill="#F1C232" d="M1877.005,712.073h17.418v10.689h-17.418V712.073z"/>
	<path fill="#3D85C6" d="M1893.243,712.073h45.966v10.689h-45.966V712.073z"/>
	<path fill="#EFEFEF" d="M1762.427,693.798l125.068-218.068l125.067,218.068H1762.427z"/>
	<path fill="none" stroke="#595959" stroke-linejoin="round" stroke-miterlimit="10" d="M1762.427,693.798l125.068-218.068
		l125.067,218.068H1762.427z"/>
	<g>
		<path fill="#CC0000" d="M1960.081,570.716h36.076v10.689h-36.076V570.716z"/>
		<path fill="#3D85C6" d="M2015.157,570.716h41.651v10.689h-41.651V570.716z"/>
		<path fill="#F1C232" d="M1996.157,570.716h40v10.689h-40V570.716z"/>
	</g>
	<g>
		<path fill="#CC0000" d="M1723.615,564.339h36.9v10.689h-36.9V564.339z"/>
		<path fill="#3D85C6" d="M1778.692,564.339h41.651v10.689h-41.651V564.339z"/>
		<path fill="#F1C232" d="M1742.066,564.339h37.626v10.689h-37.626V564.339z"/>
	</g>
</g>
<g id="Layer_2">
	<path d="M1918.132,654.752L1918.132,654.752c0-1.846,1.496-3.342,3.342-3.342l0,0c0.887,0,1.736,0.353,2.363,0.979
		c0.627,0.627,0.979,1.478,0.979,2.363l0,0c0,1.847-1.497,3.343-3.343,3.343l0,0
		C1919.628,658.094,1918.132,656.598,1918.132,654.752z"/>
	<path d="M1887.739,612.591L1887.739,612.591c0-1.846,1.497-3.342,3.343-3.342l0,0c0.886,0,1.736,0.352,2.363,0.979
		c0.626,0.627,0.979,1.478,0.979,2.363l0,0c0,1.846-1.496,3.343-3.342,3.343l0,0
		C1889.236,615.933,1887.739,614.436,1887.739,612.591z"/>
	<path d="M1877.712,608.508L1877.712,608.508c0-1.846,1.497-3.342,3.343-3.342l0,0c0.886,0,1.736,0.352,2.363,0.979
		c0.626,0.627,0.979,1.477,0.979,2.363l0,0c0,1.846-1.496,3.342-3.342,3.342l0,0
		C1879.209,611.849,1877.712,610.353,1877.712,608.508z"/>
	<path d="M1904.449,639.842L1904.449,639.842c0-1.846,1.497-3.342,3.343-3.342l0,0c0.886,0,1.736,0.353,2.363,0.979
		c0.627,0.627,0.979,1.478,0.979,2.363l0,0c0,1.847-1.496,3.343-3.342,3.343l0,0
		C1905.947,643.184,1904.449,641.688,1904.449,639.842z"/>
	<path d="M1874.37,600.534L1874.37,600.534c0-1.846,1.496-3.342,3.342-3.342l0,0c0.887,0,1.736,0.353,2.363,0.979
		c0.627,0.627,0.979,1.478,0.979,2.363l0,0c0,1.846-1.497,3.343-3.343,3.343l0,0C1875.866,603.877,1874.37,602.38,1874.37,600.534z"
		/>
	<path d="M1950.916,646.525L1950.916,646.525c0-1.846,1.496-3.342,3.342-3.342l0,0c0.887,0,1.736,0.354,2.363,0.979
		c0.627,0.627,0.979,1.479,0.979,2.363l0,0c0,1.848-1.497,3.344-3.343,3.344l0,0
		C1952.412,649.869,1950.916,648.373,1950.916,646.525z"/>
	<path d="M1878.896,510.244L1878.896,510.244c0-1.846,1.496-3.343,3.342-3.343l0,0c0.887,0,1.736,0.353,2.363,0.979
		s0.979,1.477,0.979,2.363l0,0c0,1.846-1.496,3.342-3.342,3.342l0,0C1880.392,513.586,1878.896,512.09,1878.896,510.244z"/>
	<path d="M1924.188,642.43L1924.188,642.43c0-1.846,1.497-3.342,3.343-3.342l0,0c0.886,0,1.736,0.353,2.363,0.979
		c0.626,0.627,0.979,1.478,0.979,2.363l0,0c0,1.847-1.496,3.343-3.342,3.343l0,0C1925.685,645.773,1924.188,644.277,1924.188,642.43
		z"/>
	<path d="M1876.735,592.561L1876.735,592.561c0-1.846,1.496-3.343,3.342-3.343l0,0c0.887,0,1.736,0.353,2.363,0.979
		s0.979,1.477,0.979,2.363l0,0c0,1.846-1.496,3.342-3.342,3.342l0,0C1878.231,595.903,1876.735,594.407,1876.735,592.561z"/>
	<path d="M1867.686,619.275L1867.686,619.275c0-1.846,1.496-3.342,3.342-3.342l0,0c0.887,0,1.737,0.352,2.363,0.979
		c0.627,0.627,0.979,1.477,0.979,2.363l0,0c0,1.846-1.496,3.342-3.343,3.342l0,0
		C1869.182,622.617,1867.686,621.121,1867.686,619.275z"/>
	<path d="M1887.739,600.534L1887.739,600.534c0-1.846,1.497-3.342,3.343-3.342l0,0c0.886,0,1.736,0.353,2.363,0.979
		c0.626,0.627,0.979,1.478,0.979,2.363l0,0c0,1.846-1.496,3.343-3.342,3.343l0,0C1889.236,603.877,1887.739,602.38,1887.739,600.534
		z"/>
	<path d="M1938.945,658.847L1938.945,658.847c0-1.846,1.496-3.342,3.342-3.342l0,0c0.887,0,1.736,0.352,2.363,0.979
		s0.979,1.477,0.979,2.363l0,0c0,1.846-1.497,3.342-3.343,3.342l0,0C1940.441,662.189,1938.945,660.693,1938.945,658.847z"/>
	<path d="M1894.423,625.96L1894.423,625.96c0-1.846,1.496-3.343,3.342-3.343l0,0c0.887,0,1.737,0.353,2.363,0.979
		c0.627,0.627,0.979,1.477,0.979,2.363l0,0c0,1.846-1.496,3.342-3.343,3.342l0,0C1895.919,629.302,1894.423,627.805,1894.423,625.96
		z"/>
	<path d="M1887.739,592.561L1887.739,592.561c0-1.846,1.497-3.343,3.343-3.343l0,0c0.886,0,1.736,0.353,2.363,0.979
		c0.626,0.627,0.979,1.477,0.979,2.363l0,0c0,1.846-1.496,3.342-3.342,3.342l0,0
		C1889.236,595.903,1887.739,594.407,1887.739,592.561z"/>
	<path d="M1881.056,619.275L1881.056,619.275c0-1.846,1.496-3.342,3.342-3.342l0,0c0.887,0,1.736,0.352,2.363,0.979
		s0.979,1.477,0.979,2.363l0,0c0,1.846-1.497,3.342-3.343,3.342l0,0C1882.552,622.617,1881.056,621.121,1881.056,619.275z"/>
	<path d="M1829.945,656.028L1829.945,656.028c0-1.847,1.497-3.343,3.343-3.343l0,0c0.886,0,1.736,0.352,2.363,0.979
		s0.979,1.478,0.979,2.364l0,0c0,1.846-1.496,3.342-3.342,3.342l0,0C1831.442,659.37,1829.945,657.874,1829.945,656.028z"/>
	<path d="M1881.056,605.918L1881.056,605.918c0-1.846,1.496-3.342,3.342-3.342l0,0c0.887,0,1.736,0.353,2.363,0.979
		c0.627,0.627,0.979,1.478,0.979,2.363l0,0c0,1.847-1.497,3.343-3.343,3.343l0,0C1882.552,609.26,1881.056,607.764,1881.056,605.918
		z"/>
	<path d="M1914.476,615.179L1914.476,615.179c0-1.846,1.497-3.342,3.343-3.342l0,0c0.886,0,1.736,0.352,2.363,0.979
		c0.626,0.627,0.979,1.479,0.979,2.363l0,0c0,1.846-1.496,3.344-3.342,3.344l0,0
		C1915.973,618.523,1914.476,617.025,1914.476,615.179z"/>
	<path d="M1904.449,611.097L1904.449,611.097c0-1.846,1.497-3.342,3.343-3.342l0,0c0.886,0,1.736,0.352,2.363,0.979
		c0.626,0.627,0.979,1.477,0.979,2.363l0,0c0,1.846-1.496,3.342-3.342,3.342l0,0
		C1905.947,614.439,1904.449,612.943,1904.449,611.097z"/>
	<path d="M1901.108,603.123L1901.108,603.123c0-1.846,1.496-3.342,3.342-3.342l0,0c0.887,0,1.736,0.354,2.363,0.979
		c0.627,0.627,0.979,1.479,0.979,2.363l0,0c0,1.846-1.497,3.344-3.343,3.344l0,0
		C1902.604,606.467,1901.108,604.969,1901.108,603.123z"/>
	<path d="M1903.472,595.15L1903.472,595.15c0-1.846,1.496-3.342,3.342-3.342l0,0c0.887,0,1.736,0.352,2.363,0.979
		s0.979,1.477,0.979,2.363l0,0c0,1.846-1.496,3.342-3.342,3.342l0,0C1904.968,598.492,1903.472,596.996,1903.472,595.15z"/>
	<path d="M1894.423,621.865L1894.423,621.865c0-1.846,1.496-3.342,3.342-3.342l0,0c0.887,0,1.737,0.352,2.363,0.979
		c0.627,0.627,0.979,1.477,0.979,2.363l0,0c0,1.846-1.496,3.342-3.343,3.342l0,0
		C1895.919,625.207,1894.423,623.711,1894.423,621.865z"/>
	<path d="M1914.476,603.123L1914.476,603.123c0-1.846,1.497-3.342,3.343-3.342l0,0c0.886,0,1.736,0.354,2.363,0.979
		c0.626,0.627,0.979,1.479,0.979,2.363l0,0c0,1.846-1.496,3.344-3.342,3.344l0,0
		C1915.973,606.467,1914.476,604.969,1914.476,603.123z"/>
	<path d="M1935.603,610.847L1935.603,610.847c0-1.846,1.497-3.342,3.343-3.342l0,0c0.886,0,1.736,0.352,2.363,0.979
		c0.626,0.627,0.979,1.477,0.979,2.363l0,0c0,1.845-1.496,3.343-3.342,3.343l0,0C1937.1,614.19,1935.603,612.692,1935.603,610.847z"
		/>
	<path d="M1894.423,612.602L1894.423,612.602c0-1.846,1.496-3.342,3.342-3.342l0,0c0.887,0,1.737,0.352,2.363,0.979
		c0.627,0.627,0.979,1.477,0.979,2.363l0,0c0,1.846-1.496,3.342-3.343,3.342l0,0
		C1895.919,615.944,1894.423,614.448,1894.423,612.602z"/>
	<path d="M1914.476,595.15L1914.476,595.15c0-1.846,1.497-3.342,3.343-3.342l0,0c0.886,0,1.736,0.352,2.363,0.979
		c0.626,0.627,0.979,1.477,0.979,2.363l0,0c0,1.846-1.496,3.342-3.342,3.342l0,0C1915.973,598.492,1914.476,596.996,1914.476,595.15
		z"/>
	<path d="M1899.927,628.052L1899.927,628.052c0-1.846,1.497-3.342,3.343-3.342l0,0c0.886,0,1.736,0.354,2.363,0.979
		c0.626,0.627,0.979,1.479,0.979,2.363l0,0c0,1.846-1.496,3.344-3.342,3.344l0,0
		C1901.424,631.396,1899.927,629.898,1899.927,628.052z"/>
	<path d="M1899.927,620.08L1899.927,620.08c0-1.846,1.497-3.342,3.343-3.342l0,0c0.886,0,1.736,0.352,2.363,0.979
		c0.626,0.627,0.979,1.477,0.979,2.363l0,0c0,1.846-1.496,3.342-3.342,3.342l0,0C1901.424,623.422,1899.927,621.926,1899.927,620.08
		z"/>
	<path d="M1887.739,607.219L1887.739,607.219c0-1.846,1.497-3.342,3.343-3.342l0,0c0.886,0,1.736,0.353,2.363,0.979
		c0.626,0.627,0.979,1.478,0.979,2.363l0,0c0,1.846-1.496,3.344-3.342,3.344l0,0
		C1889.236,610.562,1887.739,609.064,1887.739,607.219z"/>
	<path d="M1887.739,599.246L1887.739,599.246c0-1.846,1.497-3.343,3.343-3.343l0,0c0.886,0,1.736,0.353,2.363,0.979
		c0.626,0.627,0.979,1.477,0.979,2.363l0,0c0,1.846-1.496,3.342-3.342,3.342l0,0
		C1889.236,602.588,1887.739,601.092,1887.739,599.246z"/>
	<path d="M1907.793,621.865L1907.793,621.865c0-1.846,1.496-3.342,3.342-3.342l0,0c0.887,0,1.736,0.352,2.363,0.979
		s0.979,1.477,0.979,2.363l0,0c0,1.846-1.497,3.342-3.343,3.342l0,0C1909.289,625.207,1907.793,623.711,1907.793,621.865z"/>
	<path d="M1894.423,603.124L1894.423,603.124c0-1.846,1.496-3.342,3.342-3.342l0,0c0.887,0,1.736,0.352,2.363,0.979
		s0.979,1.477,0.979,2.363l0,0c0,1.846-1.497,3.342-3.343,3.342l0,0C1895.919,606.466,1894.423,604.969,1894.423,603.124z"/>
	<path d="M1864.343,639.317L1864.343,639.317c0-1.846,1.497-3.342,3.343-3.342l0,0c0.886,0,1.736,0.352,2.363,0.979
		c0.626,0.627,0.979,1.478,0.979,2.363l0,0c0,1.846-1.496,3.343-3.342,3.343l0,0C1865.84,642.66,1864.343,641.163,1864.343,639.317z
		"/>
	<path d="M1854.317,635.234L1854.317,635.234c0-1.846,1.497-3.342,3.343-3.342l0,0c0.886,0,1.736,0.352,2.363,0.979
		c0.626,0.627,0.979,1.477,0.979,2.363l0,0c0,1.846-1.496,3.342-3.342,3.342l0,0C1855.814,638.576,1854.317,637.08,1854.317,635.234
		z"/>
	<path d="M1850.975,627.26L1850.975,627.26c0-1.846,1.496-3.342,3.342-3.342l0,0c0.887,0,1.736,0.353,2.363,0.979
		c0.627,0.627,0.979,1.478,0.979,2.363l0,0c0,1.846-1.497,3.343-3.343,3.343l0,0C1852.471,630.603,1850.975,629.106,1850.975,627.26
		z"/>
	<path d="M1853.339,619.288L1853.339,619.288c0-1.846,1.496-3.343,3.342-3.343l0,0c0.887,0,1.736,0.353,2.363,0.979
		s0.979,1.477,0.979,2.363l0,0c0,1.846-1.496,3.342-3.342,3.342l0,0C1854.835,622.63,1853.339,621.134,1853.339,619.288z"/>
	<path d="M1844.29,646.002L1844.29,646.002c0-1.846,1.496-3.342,3.342-3.342l0,0c0.887,0,1.737,0.352,2.363,0.979
		c0.627,0.627,0.979,1.477,0.979,2.363l0,0c0,1.846-1.496,3.342-3.343,3.342l0,0C1845.786,649.344,1844.29,647.847,1844.29,646.002z
		"/>
	<path d="M1864.343,627.26L1864.343,627.26c0-1.846,1.497-3.342,3.343-3.342l0,0c0.886,0,1.736,0.353,2.363,0.979
		c0.626,0.627,0.979,1.478,0.979,2.363l0,0c0,1.846-1.496,3.343-3.342,3.343l0,0C1865.84,630.603,1864.343,629.106,1864.343,627.26z
		"/>
	<path d="M1871.028,652.686L1871.028,652.686c0-1.846,1.496-3.343,3.342-3.343l0,0c0.887,0,1.737,0.353,2.363,0.979
		c0.627,0.627,0.979,1.477,0.979,2.363l0,0c0,1.846-1.496,3.342-3.343,3.342l0,0
		C1872.524,656.028,1871.028,654.532,1871.028,652.686z"/>
	<path d="M1864.343,619.288L1864.343,619.288c0-1.846,1.497-3.343,3.343-3.343l0,0c0.886,0,1.736,0.353,2.363,0.979
		c0.626,0.627,0.979,1.477,0.979,2.363l0,0c0,1.846-1.496,3.342-3.342,3.342l0,0C1865.84,622.63,1864.343,621.134,1864.343,619.288z
		"/>
	<path d="M1856.68,607.506L1856.68,607.506c0-1.846,1.497-3.343,3.343-3.343l0,0c0.886,0,1.736,0.353,2.363,0.979
		c0.626,0.627,0.979,1.477,0.979,2.363l0,0c0,1.846-1.496,3.342-3.342,3.342l0,0C1858.177,610.847,1856.68,609.351,1856.68,607.506z
		"/>
	<path d="M1857.66,646.002L1857.66,646.002c0-1.846,1.496-3.342,3.342-3.342l0,0c0.887,0,1.736,0.352,2.363,0.979
		s0.979,1.477,0.979,2.363l0,0c0,1.846-1.497,3.342-3.343,3.342l0,0C1859.156,649.344,1857.66,647.847,1857.66,646.002z"/>
	<path d="M1857.66,632.644L1857.66,632.644c0-1.846,1.496-3.342,3.342-3.342l0,0c0.887,0,1.736,0.353,2.363,0.979
		c0.627,0.627,0.979,1.478,0.979,2.363l0,0c0,1.847-1.497,3.343-3.343,3.343l0,0C1859.156,635.987,1857.66,634.491,1857.66,632.644z
		"/>
	<path d="M1897.766,654.752L1897.766,654.752c0-1.846,1.497-3.342,3.343-3.342l0,0c0.886,0,1.736,0.352,2.363,0.979
		c0.626,0.627,0.979,1.479,0.979,2.363l0,0c0,1.846-1.496,3.344-3.342,3.344l0,0
		C1899.263,658.095,1897.766,656.597,1897.766,654.752z"/>
	<path d="M1881.054,637.824L1881.054,637.824c0-1.846,1.497-3.342,3.343-3.342l0,0c0.886,0,1.736,0.352,2.363,0.979
		c0.626,0.627,0.979,1.477,0.979,2.363l0,0c0,1.846-1.496,3.342-3.342,3.342l0,0C1882.551,641.166,1881.054,639.67,1881.054,637.824
		z"/>
	<path d="M1877.712,629.849L1877.712,629.849c0-1.846,1.496-3.342,3.342-3.342l0,0c0.887,0,1.736,0.354,2.363,0.979
		c0.627,0.627,0.979,1.479,0.979,2.363l0,0c0,1.846-1.497,3.344-3.343,3.344l0,0
		C1879.208,633.193,1877.712,631.695,1877.712,629.849z"/>
	<path d="M1880.076,621.877L1880.076,621.877c0-1.846,1.496-3.342,3.342-3.342l0,0c0.887,0,1.736,0.352,2.363,0.979
		s0.979,1.477,0.979,2.363l0,0c0,1.846-1.496,3.342-3.342,3.342l0,0C1881.573,625.219,1880.076,623.722,1880.076,621.877z"/>
	<path d="M1871.028,648.592L1871.028,648.592c0-1.846,1.496-3.342,3.342-3.342l0,0c0.887,0,1.737,0.352,2.363,0.979
		c0.627,0.627,0.979,1.477,0.979,2.363l0,0c0,1.846-1.496,3.342-3.343,3.342l0,0
		C1872.524,651.933,1871.028,650.437,1871.028,648.592z"/>
	<path d="M1891.08,629.849L1891.08,629.849c0-1.846,1.497-3.342,3.343-3.342l0,0c0.886,0,1.736,0.354,2.363,0.979
		c0.626,0.627,0.979,1.479,0.979,2.363l0,0c0,1.846-1.496,3.344-3.342,3.344l0,0C1892.577,633.193,1891.08,631.695,1891.08,629.849z
		"/>
	<path d="M1884.153,608.507L1884.153,608.507c0-1.846,1.497-3.342,3.343-3.342l0,0c0.886,0,1.736,0.354,2.363,0.979
		c0.626,0.627,0.979,1.479,0.979,2.363l0,0c0,1.846-1.496,3.344-3.342,3.344l0,0C1885.65,611.85,1884.153,610.352,1884.153,608.507z
		"/>
	<path d="M1871.028,639.329L1871.028,639.329c0-1.846,1.496-3.342,3.342-3.342l0,0c0.887,0,1.737,0.352,2.363,0.979
		c0.627,0.627,0.979,1.477,0.979,2.363l0,0c0,1.846-1.496,3.342-3.343,3.342l0,0
		C1872.524,642.671,1871.028,641.175,1871.028,639.329z"/>
	<path d="M1891.08,621.877L1891.08,621.877c0-1.846,1.497-3.342,3.343-3.342l0,0c0.886,0,1.736,0.352,2.363,0.979
		c0.626,0.627,0.979,1.477,0.979,2.363l0,0c0,1.846-1.496,3.342-3.342,3.342l0,0C1892.577,625.219,1891.08,623.722,1891.08,621.877z
		"/>
	<path d="M1911.133,627.41L1911.133,627.41c0-1.846,1.497-3.342,3.343-3.342l0,0c0.886,0,1.736,0.352,2.363,0.979
		c0.626,0.627,0.979,1.477,0.979,2.363l0,0c0,1.846-1.496,3.342-3.342,3.342l0,0C1912.63,630.752,1911.133,629.256,1911.133,627.41z
		"/>
	<path d="M1884.398,648.592L1884.398,648.592c0-1.846,1.496-3.342,3.342-3.342l0,0c0.887,0,1.736,0.352,2.363,0.979
		s0.979,1.477,0.979,2.363l0,0c0,1.846-1.497,3.342-3.343,3.342l0,0C1885.894,651.933,1884.398,650.437,1884.398,648.592z"/>
	<path d="M1871.028,629.85L1871.028,629.85c0-1.846,1.496-3.342,3.342-3.342l0,0c0.887,0,1.736,0.352,2.363,0.979
		s0.979,1.477,0.979,2.363l0,0c0,1.846-1.497,3.342-3.343,3.342l0,0C1872.524,633.192,1871.028,631.696,1871.028,629.85z"/>
	<path d="M1867.686,603.623L1867.686,603.623c0-1.846,1.496-3.342,3.342-3.342l0,0c0.887,0,1.736,0.352,2.363,0.979
		s0.979,1.477,0.979,2.363l0,0c0,1.846-1.497,3.342-3.343,3.342l0,0C1869.182,606.965,1867.686,605.469,1867.686,603.623z"/>
	<path d="M1870.045,560.278L1870.045,560.278c0-1.846,1.496-3.342,3.342-3.342l0,0c0.887,0,1.736,0.353,2.363,0.979
		c0.627,0.627,0.979,1.478,0.979,2.363l0,0c0,1.846-1.497,3.343-3.343,3.343l0,0C1871.541,563.62,1870.045,562.123,1870.045,560.278
		z"/>
	<path d="M1875.554,567.432L1875.554,567.432c0-1.846,1.496-3.343,3.342-3.343l0,0c0.887,0,1.736,0.353,2.363,0.979
		s0.979,1.477,0.979,2.363l0,0c0,1.846-1.496,3.342-3.342,3.342l0,0C1877.05,570.774,1875.554,569.278,1875.554,567.432z"/>
	<path d="M1886.558,575.405L1886.558,575.405c0-1.846,1.497-3.342,3.343-3.342l0,0c0.886,0,1.736,0.353,2.363,0.979
		c0.626,0.627,0.979,1.478,0.979,2.363l0,0c0,1.846-1.496,3.343-3.342,3.343l0,0C1888.055,578.747,1886.558,577.25,1886.558,575.405
		z"/>
	<path d="M1886.558,567.432L1886.558,567.432c0-1.846,1.497-3.343,3.343-3.343l0,0c0.886,0,1.736,0.353,2.363,0.979
		c0.626,0.627,0.979,1.477,0.979,2.363l0,0c0,1.846-1.496,3.342-3.342,3.342l0,0
		C1888.055,570.774,1886.558,569.278,1886.558,567.432z"/>
	<path d="M1899.927,577.994L1899.927,577.994c0-1.846,1.496-3.342,3.342-3.342l0,0c0.887,0,1.736,0.353,2.363,0.979
		c0.627,0.627,0.979,1.478,0.979,2.363l0,0c0,1.845-1.497,3.343-3.343,3.343l0,0
		C1901.423,581.337,1899.927,579.839,1899.927,577.994z"/>
	<path d="M1902.291,570.021L1902.291,570.021c0-1.846,1.496-3.343,3.342-3.343l0,0c0.887,0,1.736,0.353,2.363,0.979
		s0.979,1.477,0.979,2.363l0,0c0,1.846-1.496,3.342-3.342,3.342l0,0C1903.787,573.363,1902.291,571.867,1902.291,570.021z"/>
	<path d="M1893.242,539.756L1893.242,539.756c0-1.846,1.496-3.343,3.342-3.343l0,0c0.887,0,1.736,0.353,2.363,0.979
		s0.979,1.477,0.979,2.363l0,0c0,1.846-1.496,3.342-3.342,3.342l0,0C1894.739,543.098,1893.242,541.602,1893.242,539.756z"/>
	<path d="M1893.242,577.994L1893.242,577.994c0-1.846,1.496-3.342,3.342-3.342l0,0c0.887,0,1.736,0.352,2.363,0.979
		s0.979,1.477,0.979,2.363l0,0c0,1.846-1.497,3.342-3.343,3.342l0,0C1894.739,581.336,1893.242,579.84,1893.242,577.994z"/>
	<path d="M1880.076,584.763L1880.076,584.763c0-1.846,1.496-3.342,3.342-3.342l0,0c0.887,0,1.736,0.352,2.363,0.979
		s0.979,1.477,0.979,2.363l0,0c0,1.846-1.497,3.342-3.343,3.342l0,0C1881.573,588.105,1880.076,586.609,1880.076,584.763z"/>
	<path d="M1866.505,578.493L1866.505,578.493c0-1.846,1.496-3.342,3.342-3.342l0,0c0.887,0,1.736,0.352,2.363,0.979
		s0.979,1.477,0.979,2.363l0,0c0,1.846-1.497,3.342-3.343,3.342l0,0C1868.001,581.835,1866.505,580.339,1866.505,578.493z"/>
	<path d="M1917.818,629.302L1917.818,629.302c0-1.846,1.496-3.342,3.342-3.342l0,0c0.887,0,1.736,0.352,2.363,0.979
		s0.979,1.477,0.979,2.363l0,0c0,1.846-1.497,3.342-3.343,3.342l0,0C1919.314,632.644,1917.818,631.148,1917.818,629.302z"/>
	<path d="M1969.027,648.279L1969.027,648.279c0-1.846,1.496-3.342,3.342-3.342l0,0c0.887,0,1.736,0.354,2.363,0.979
		c0.627,0.627,0.979,1.479,0.979,2.363l0,0c0,1.848-1.496,3.344-3.342,3.344l0,0
		C1970.523,651.623,1969.027,650.127,1969.027,648.279z"/>
	<path d="M1827.574,645.319L1827.574,645.319c0-1.846,1.496-3.343,3.342-3.343l0,0c0.887,0,1.736,0.353,2.363,0.979
		s0.979,1.477,0.979,2.363l0,0c0,1.846-1.496,3.342-3.342,3.342l0,0C1829.071,648.661,1827.574,647.165,1827.574,645.319z"/>
	<path d="M1838.999,609.202L1838.999,609.202c0-1.846,1.496-3.342,3.342-3.342l0,0c0.887,0,1.736,0.352,2.363,0.979
		s0.979,1.477,0.979,2.363l0,0c0,1.846-1.496,3.343-3.342,3.343l0,0C1840.495,612.545,1838.999,611.048,1838.999,609.202z"/>
	<path d="M1867.681,626.657L1867.681,626.657c0-1.846,1.497-3.342,3.343-3.342l0,0c0.886,0,1.736,0.352,2.363,0.979
		c0.626,0.627,0.979,1.477,0.979,2.363l0,0c0,1.846-1.496,3.342-3.342,3.342l0,0
		C1869.178,629.999,1867.681,628.503,1867.681,626.657z"/>
	<path d="M1864.339,618.683L1864.339,618.683c0-1.846,1.496-3.342,3.342-3.342l0,0c0.887,0,1.736,0.353,2.363,0.979
		c0.627,0.627,0.979,1.478,0.979,2.363l0,0c0,1.846-1.497,3.343-3.343,3.343l0,0
		C1865.835,622.026,1864.339,620.529,1864.339,618.683z"/>
	<path d="M1866.703,610.711L1866.703,610.711c0-1.846,1.496-3.343,3.342-3.343l0,0c0.887,0,1.736,0.353,2.363,0.979
		s0.979,1.477,0.979,2.363l0,0c0,1.846-1.496,3.342-3.342,3.342l0,0C1868.199,614.052,1866.703,612.556,1866.703,610.711z"/>
	<path d="M1871.025,624.067L1871.025,624.067c0-1.846,1.496-3.342,3.342-3.342l0,0c0.887,0,1.736,0.353,2.363,0.979
		c0.627,0.627,0.979,1.478,0.979,2.363l0,0c0,1.847-1.497,3.343-3.343,3.343l0,0C1872.521,627.41,1871.025,625.914,1871.025,624.067
		z"/>
	<path d="M1846.649,625.655L1846.649,625.655c0-1.846,1.497-3.343,3.343-3.343l0,0c0.886,0,1.736,0.353,2.363,0.979
		c0.626,0.627,0.979,1.477,0.979,2.363l0,0c0,1.846-1.496,3.342-3.342,3.342l0,0
		C1848.146,628.997,1846.649,627.501,1846.649,625.655z"/>
	<path d="M1857.655,621.772L1857.655,621.772c0-1.846,1.496-3.342,3.342-3.342l0,0c0.887,0,1.736,0.352,2.363,0.979
		s0.979,1.477,0.979,2.363l0,0c0,1.846-1.497,3.342-3.343,3.342l0,0C1859.151,625.114,1857.655,623.618,1857.655,621.772z"/>
	<path d="M1863.158,593.554L1863.158,593.554c0-1.846,1.496-3.342,3.342-3.342l0,0c0.887,0,1.736,0.352,2.363,0.979
		s0.979,1.477,0.979,2.363l0,0c0,1.846-1.497,3.342-3.343,3.342l0,0C1864.655,596.896,1863.158,595.4,1863.158,593.554z"/>
	<path d="M1864.347,572.063L1864.347,572.063c0-1.846,1.496-3.343,3.342-3.343l0,0c0.887,0,1.736,0.353,2.363,0.979
		s0.979,1.477,0.979,2.363l0,0c0,1.846-1.496,3.342-3.342,3.342l0,0C1865.843,575.405,1864.347,573.909,1864.347,572.063z"/>
	<path d="M1870.045,602.913L1870.045,602.913c0-1.846,1.496-3.342,3.342-3.342l0,0c0.887,0,1.736,0.352,2.363,0.979
		s0.979,1.477,0.979,2.363l0,0c0,1.846-1.497,3.342-3.343,3.342l0,0C1871.541,606.255,1870.045,604.759,1870.045,602.913z"/>
	<path d="M1856.474,596.642L1856.474,596.642c0-1.846,1.496-3.342,3.342-3.342l0,0c0.887,0,1.736,0.352,2.363,0.979
		s0.979,1.477,0.979,2.363l0,0c0,1.846-1.497,3.342-3.343,3.342l0,0C1857.97,599.984,1856.474,598.488,1856.474,596.642z"/>
	<path d="M1911.448,643.183L1911.448,643.183c0-1.846,1.496-3.342,3.342-3.342l0,0c0.887,0,1.736,0.352,2.363,0.979
		s0.979,1.477,0.979,2.363l0,0c0,1.846-1.496,3.343-3.342,3.343l0,0C1912.945,646.526,1911.448,645.029,1911.448,643.183z"/>
	<path d="M1886.562,627.254L1886.562,627.254c0-1.846,1.496-3.342,3.342-3.342l0,0c0.887,0,1.736,0.352,2.363,0.979
		s0.979,1.477,0.979,2.363l0,0c0,1.846-1.496,3.342-3.342,3.342l0,0C1888.058,630.595,1886.562,629.099,1886.562,627.254z"/>
	<path d="M1897.987,591.136L1897.987,591.136c0-1.846,1.496-3.342,3.342-3.342l0,0c0.887,0,1.736,0.352,2.363,0.979
		s0.979,1.477,0.979,2.363l0,0c0,1.846-1.496,3.344-3.342,3.344l0,0C1899.483,594.48,1897.987,592.982,1897.987,591.136z"/>
	<path d="M1911.335,639.224L1911.335,639.224c0-1.846,1.496-3.342,3.342-3.342l0,0c0.887,0,1.737,0.352,2.363,0.979
		c0.627,0.627,0.979,1.477,0.979,2.363l0,0c0,1.846-1.496,3.342-3.343,3.342l0,0C1912.831,642.566,1911.335,641.07,1911.335,639.224
		z"/>
	<path d="M1942.129,629.127L1942.129,629.127c0-1.846,1.497-3.342,3.343-3.342l0,0c0.886,0,1.736,0.353,2.363,0.979
		c0.627,0.627,0.979,1.478,0.979,2.363l0,0c0,1.847-1.496,3.343-3.342,3.343l0,0
		C1943.626,632.469,1942.129,630.973,1942.129,629.127z"/>
	<path d="M1917.818,599.779L1917.818,599.779c0-1.846,1.497-3.342,3.343-3.342l0,0c0.886,0,1.736,0.352,2.363,0.979
		c0.626,0.627,0.979,1.479,0.979,2.363l0,0c0,1.846-1.496,3.344-3.342,3.344l0,0
		C1919.315,603.123,1917.818,601.625,1917.818,599.779z"/>
	<path d="M1922.077,637.877L1922.077,637.877c0-1.846,1.496-3.342,3.342-3.342l0,0c0.887,0,1.736,0.352,2.363,0.979
		s0.979,1.477,0.979,2.363l0,0c0,1.846-1.497,3.342-3.343,3.342l0,0C1923.573,641.219,1922.077,639.722,1922.077,637.877z"/>
	<path d="M1949.128,632.469L1949.128,632.469c0-1.846,1.496-3.342,3.342-3.342l0,0c0.887,0,1.736,0.352,2.363,0.979
		s0.979,1.477,0.979,2.363l0,0c0,1.846-1.496,3.343-3.342,3.343l0,0C1950.624,635.811,1949.128,634.314,1949.128,632.469z"/>
	<path d="M1935.603,646.002L1935.603,646.002c0-1.846,1.496-3.342,3.342-3.342l0,0c0.887,0,1.737,0.352,2.363,0.979
		c0.627,0.627,0.979,1.477,0.979,2.363l0,0c0,1.846-1.496,3.342-3.343,3.342l0,0
		C1937.099,649.344,1935.603,647.847,1935.603,646.002z"/>
	<path d="M1861.004,670.999L1861.004,670.999c0-1.847,1.497-3.343,3.343-3.343l0,0c0.886,0,1.736,0.352,2.363,0.979
		s0.979,1.478,0.979,2.364l0,0c0,1.846-1.496,3.342-3.342,3.342l0,0C1862.501,674.341,1861.004,672.844,1861.004,670.999z"/>
	<path d="M1897.225,670.616L1897.225,670.616c0-1.847,1.496-3.343,3.342-3.343l0,0c0.887,0,1.737,0.352,2.363,0.979
		c0.627,0.627,0.979,1.478,0.979,2.364l0,0c0,1.846-1.496,3.342-3.343,3.342l0,0
		C1898.721,673.958,1897.225,672.462,1897.225,670.616z"/>
	<path d="M1856.243,645.189L1856.243,645.189c0-1.846,1.496-3.342,3.342-3.342l0,0c0.887,0,1.737,0.354,2.363,0.979
		c0.627,0.627,0.979,1.479,0.979,2.363l0,0c0,1.846-1.496,3.344-3.343,3.344l0,0C1857.74,648.533,1856.243,647.035,1856.243,645.189
		z"/>
	<path d="M1950.917,658.847L1950.917,658.847c0-1.846,1.496-3.342,3.342-3.342l0,0c0.887,0,1.736,0.352,2.363,0.979
		s0.979,1.477,0.979,2.363l0,0c0,1.846-1.497,3.342-3.343,3.342l0,0C1952.413,662.189,1950.917,660.693,1950.917,658.847z"/>
	<g>
		<g>
			<path fill="none" stroke="#000000" stroke-miterlimit="10" d="M2119.322,677.074c-12.737,1.588-32.223,7.771-13.877,37.942"/>
			<g>
				<path d="M2117.542,677.344l-1.512,3.937l0.136,0.059l5.362-3.348c1.934-0.81,3.866-1.618,5.8-2.428
					c-2.095-0.077-4.188-0.153-6.283-0.23l-6.198-1.244l-0.109,0.082L2117.542,677.344z"/>
			</g>
		</g>
	</g>
	<g>
		<g>
			<path fill="none" stroke="#000000" stroke-miterlimit="10" d="M2382.578,674.905c12.406,1.18,30.843,6.851,12.682,36.717"/>
			<g>
				<path d="M2384.365,675.107l2.643-3.285l-0.111-0.098l-6.129,1.547c-2.089,0.18-4.177,0.359-6.265,0.538
					c1.971,0.715,3.941,1.427,5.912,2.142l5.52,3.079l0.131-0.044L2384.365,675.107z"/>
			</g>
		</g>
	</g>
	<g>
		<g>
			<path fill="none" stroke="#000000" stroke-miterlimit="10" d="M2219.677,497.18c-6.018-5.002-9.955-14.637,7.621-29.451"/>
			<g>
				<path d="M2218.216,496.015l-3.471,2.395l0.079,0.125l6.316,0.266c2.052,0.424,4.104,0.848,6.157,1.272
					c-1.685-1.247-3.37-2.492-5.055-3.739l-4.412-4.527l-0.137,0.005L2218.216,496.015z"/>
			</g>
		</g>
	</g>
	<g>
		<g>
			<path fill="none" stroke="#000000" stroke-miterlimit="10" d="M1839.603,618.13c-20.457-1.237-69.537-11.434-67.658-39.382"/>
			<g>
				<path d="M1837.772,618.052l-1.696,3.861l0.133,0.064l5.516-3.09c1.969-0.716,3.938-1.433,5.908-2.149
					c-2.089-0.177-4.177-0.352-6.266-0.528l-6.132-1.537l-0.113,0.076L1837.772,618.052z"/>
			</g>
		</g>
	</g>
	<g>
		<g>
			<path fill="none" stroke="#000000" stroke-miterlimit="10" d="M1938.794,620.194c20.115,2.64,66.806-0.948,68.92-32.399"/>
			<g>
				<path d="M1940.582,620.42l2.921-3.041l-0.102-0.107l-6.242,1.004c-2.096-0.005-4.191-0.01-6.287-0.015
					c1.9,0.885,3.801,1.768,5.701,2.652l5.229,3.552l0.133-0.032L1940.582,620.42z"/>
			</g>
		</g>
	</g>
	<g>
		<g>
			<path fill="none" stroke="#000000" stroke-miterlimit="10" d="M1881.155,665.511c-6.95,22.591,12.088,41.217,12.088,41.217"/>
			<g>
				<path d="M1880.637,667.236l2.507,3.391l0.122-0.083l0.061-6.321c0.357-2.065,0.714-4.13,1.071-6.195
					c-1.191,1.725-2.381,3.449-3.573,5.174l-4.381,4.557l0.01,0.137L1880.637,667.236z"/>
			</g>
		</g>
	</g>
</g>
</svg>
